<?xml version="1.0" ?><!DOCTYPE svg  PUBLIC '-//W3C//DTD SVG 1.1//EN'  'http://www.w3.org/Graphics/SVG/1.1/DTD/svg11.dtd'><svg enable-background="new 0 0 512 512" height="512px" id="Layer_1" version="1.1" viewBox="0 0 512 512" width="512px" xml:space="preserve" xmlns="http://www.w3.org/2000/svg" xmlns:xlink="http://www.w3.org/1999/xlink"><g><g opacity="0.12"><g><rect fill="none" height="127.055" width="407.443" x="38.722" y="383.945"/><path d="M446.165,447.459c0,35.1-91.199,63.541-203.722,63.541c-112.512,0-203.722-28.441-203.722-63.541     c0-35.08,91.21-63.52,203.722-63.52C354.966,383.939,446.165,412.379,446.165,447.459" fill="#231F20"/></g></g><path d="M90.725,380.904c0,0-16.017,18.854-4.715,47.117c11.305,28.27,73.505,15.084,75.387,0   c0,0,49.95,8.484,36.757-33.93c0,0-5.657-9.41-12.247-13.188H90.725z" fill="#989897"/><path d="M220.767,423.312c0,0-26.379,26.379,0,53.711c26.385,27.33,92.355,11.309,86.708-11.309   c0,0,70.672,13.199,58.425-32.979s-26.511-34.875-26.511-34.875L220.767,423.312z" fill="#989897"/><path d="M97.317,309.281c0,0,7.545,36.748-6.59,71.617c0,0,12.244,32.992,58.422,11.314   c0,0,34.866,9.424,36.754-11.314v-26.457C185.903,354.441,132.184,305.512,97.317,309.281" fill="#F3CBA2"/><path d="M218.885,362.053c0,0,6.596,28.275,1.881,61.26c0,0,44.3,37.688,75.399,0c0,0,46.271,8.99,48.103-26.588   c0,0-17.954-22.42-24.554-53.52L218.885,362.053z" fill="#F3CBA2"/><path d="M90.725,292.326c0,0-25.453,35.801-44.293,0c0,0-40.521,1.877-20.731-28.277c0,0-30.69-14.138-5.447-30.155   c0,0-4.922-35.815,19.582-14.138c0,0-4.715-27.324,17.908-28.276L90.725,292.326z" fill="#005281"/><path d="M281.582,359.229c0,0-19.346,49.947-52.331,5.66c0,0-46.174,39.203-53.72-10.547   c0,0-55.598,18.072-55.598-35.637c0,0-54.655,8.484-43.344-45.24c0,0-50.893-14.125-20.738-55.593c0,0-33.917-29.209,1.888-45.239   c0,0-32.042-44.283,14.135-52.771c0,0-32.982-61.252,41.462-55.595c0,0,9.529-49.001,48.105-25.439c0,0,11.265-42.412,52.734-12.26   c0,0,38.685-55.594,67.405-2.824c0,0,59.816-22.613,49.441,34.866c0,0,68.793-14.135,46.178,55.598l-46.178,213.919   C331.023,328.127,324.482,379.014,281.582,359.229" fill="#0073B2"/><path d="M245.186,156.862c-26.812-2.108-34.857,16.276-34.857,16.276v-14.939H177.39v108.786h32.939v-52.856   c0-9.003,2.108-28.54,19.917-28.54c17.816,0,18.391,20.501,18.391,20.501v60.894h32.942v-72.583   C281.578,176.402,272.001,158.967,245.186,156.862z" fill="#FFFFFF"/><path d="M323.484,157.562c0,0-33.918-60.313-94.237-39.582c0,0-15.074,65.028,64.095,81.997   c0,0-66.919,144.181,41.45,160.197c0,0,38.639,60.309,84.816,20.73c0,0,45.231,37.688,71.617-37.699   c26.392-75.387-1.878-87.634-29.209-133.812c0,0,49.001-14.329,35.815-95.744c0,0-51.839-3.205-75.394,25.062L323.484,157.562z" fill="#F3CBA2"/><path d="M450.709,327.189   c0,0-26.937,39.525-68.938,0" fill="none" stroke="#C8A988" stroke-linecap="round" stroke-miterlimit="10" stroke-width="4.7474"/><path d="M353.646,327.189   c0,0-26.385-1.893-26.385-29.217" fill="none" stroke="#C8A988" stroke-linecap="round" stroke-miterlimit="10" stroke-width="4.7474"/><path d="M422.439,344.754   c0,0,8.104,28.527-2.83,36.145" fill="none" stroke="#C8A988" stroke-linecap="round" stroke-miterlimit="10" stroke-width="4.7474"/><path d="M333.446,316.938   c0,0-12.037,27.477,1.353,43.236" fill="none" stroke="#C8A988" stroke-linecap="round" stroke-miterlimit="10" stroke-width="4.7474"/><path d="M441.286,232.01c0,9.082,4.209,16.443,9.423,16.443c5.201,0,9.424-7.361,9.424-16.443   c0-9.082-4.223-16.443-9.424-16.443C445.495,215.566,441.286,222.928,441.286,232.01" fill="#434445"/><path d="M344.216,232.01c0,9.082,4.209,16.443,9.423,16.443c5.201,0,9.431-7.361,9.431-16.443   c0-9.082-4.229-16.443-9.431-16.443C348.425,215.566,344.216,222.928,344.216,232.01" fill="#434445"/><path d="M310.299,192.11c0,0,10.835-64.706-67.852-59.052C242.447,133.058,241.504,182.824,310.299,192.11" fill="#F6B5CE"/><path d="M479.919,136.361c0,0-47.452-14.604-54.597,47.593C425.322,183.954,475.677,202.321,479.919,136.361" fill="#F6B5CE"/><path d="M416.234,113.535c0,0-15.918-39.371-48.903-6.865c0,0-46.671-31.094-45.725,15.553   c0,0-51.011,14.789-6.127,42.412c0,0-15.925,48.056,28.782,31.094c0,0,14.565,37.411,45.192,3.631c0,0,36.42,30.292,35.868-19.175   c0,0,44.72-2.909,11.965-30.424C437.287,149.76,467.055,106.265,416.234,113.535" fill="#005281"/><rect fill="#FFFFFF" height="108.786" width="32.942" x="122.613" y="158.199"/><circle cx="139.084" cy="125.536" fill="#FFFFFF" r="19.919"/></g></svg>